<?xml version="1.0" encoding="utf-8"?>
<!-- Svg Vector Icons : http://www.onlinewebfonts.com/icon -->
<!DOCTYPE svg PUBLIC "-//W3C//DTD SVG 1.1//EN" "http://www.w3.org/Graphics/SVG/1.1/DTD/svg11.dtd">
<svg version="1.1" xmlns="http://www.w3.org/2000/svg" xmlns:xlink="http://www.w3.org/1999/xlink" x="0px" y="0px" viewBox="0 0 1000 1000" enable-background="new 0 0 1000 1000" xml:space="preserve">
<metadata> Svg Vector Icons : http://www.onlinewebfonts.com/icon </metadata>
<g><g transform="translate(0.000000,512.000000) scale(0.100000,-0.100000)"><path d="M3479.5,4880.8c-162.7-166.5-243.1-317.8-291-551.3c-53.6-273.7-9.6-568.5,128.3-849.9c61.3-124.4,201-325.4,262.3-380.9c38.3-34.5,38.3-34.5-28.7-134c-191.4-283.3-369.5-790.6-369.5-1052.9c0-47.9-32.5-91.9-178-241.2c-97.6-101.5-195.3-210.6-220.1-243.1l-42.1-61.3l93.8-122.5c289.1-380.9,782.9-648.9,1416.6-765.7c193.3-34.5,291-40.2,748.5-40.2c447.9,0,559,7.7,746.6,40.2c652.8,118.7,1173.5,411.6,1456.8,819.3l53.6,78.5l-68.9,84.2c-38.3,45.9-135.9,153.1-218.2,237.4c-145.5,153.1-147.4,153.1-158.9,277.6c-26.8,287.1-158.9,658.5-327.3,926.5l-101.5,162.7l47.9,44c72.7,67,246.9,336.9,292.9,455.6c147.4,365.6,145.5,735.1-1.9,1047.1c-55.5,118.7-204.8,298.6-302.5,367.5l-51.7,38.3l7.6-111c17.2-237.4-65.1-549.4-208.7-792.5c-84.2-143.6-365.6-440.3-438.4-463.3c-24.9-7.7-80.4,3.8-139.7,26.8c-363.7,145.5-809.8,149.3-1148.6,11.5c-70.8-30.6-135.9-44-162.7-38.3c-72.7,17.2-354.1,312-442.2,463.3c-143.6,243.1-225.9,555.1-208.7,794.4c3.8,61.3,3.8,111,0,111C3621.1,5018.6,3554.1,4955.5,3479.5,4880.8z"/><path d="M939.2,1936.6c-124.4-36.4-147.4-68.9-472.8-715.9C93.1,479.9,83.5,456.9,116,345.9c63.2-212.5,310.1-289.1,486.2-151.2c26.8,23,143.6,227.8,283.3,507.3c130.2,256.5,243.1,467.1,250.8,463.3c21-5.7,1049-800.2,1049-809.7c0-3.8-28.7-105.3-65.1-224c-34.5-116.8-74.7-268-88.1-333.1c-17.2-88.1-32.5-120.6-55.5-120.6c-17.2,0-402-42.1-855.7-93.8c-895.9-99.5-890.1-99.5-976.3-225.9c-34.5-49.8-36.4-105.3-42.1-742.7c-5.7-685.3-5.7-689.2,38.3-775.3c47.9-91.9,168.5-172.3,264.2-172.3c93.8,0,216.3,80.4,262.3,172.3c42.1,82.3,44,103.4,44,587.7c0,294.8,7.7,503.5,17.2,503.5c24.9,0,1028,111,1127.5,124.4l80.4,11.5v-158.9c0-277.6,55.5-775.3,107.2-964.8c9.6-38.3-70.8-82.3-886.3-495.8c-492-250.8-918.9-470.9-947.6-490c-65.1-46-118.7-187.6-105.3-271.8c13.4-90,654.7-1334.3,714-1386c195.3-176.1,505.4-34.5,505.4,231.6c0,47.9-70.8,206.7-250.8,557.1c-139.7,273.7-243.1,499.6-235.5,507.3c24.9,24.9,1387.9,714,1393.6,706.4c3.8-3.8,59.3-114.9,122.5-247C2842-3959.4,3743.6-4658.1,4693.1-4759.6l153.1-15.3v2446.5V118.1h-122.5c-68.9,0-225.9,13.4-350.3,28.7c-740.8,97.6-1349.6,390.5-1720.9,828.9L2551,1094.3l-44-76.6c-24.9-42.1-51.7-76.6-59.3-76.6c-7.7,0-294.8,216.3-635.6,478.6c-342.7,264.2-650.9,492-687.2,507.3C1050.2,1957.7,1013.8,1959.6,939.2,1936.6z"/><path d="M8870.1,1927.1c-34.5-15.3-342.7-243.1-683.4-507.3c-340.7-262.3-627.9-478.6-635.6-478.6c-7.6,0-36.4,36.4-61.3,80.4l-44,78.5l-49.8-65.1c-204.8-273.7-633.6-570.5-1033.7-714C6048.4,208,5564.1,118.1,5275.1,118.1h-122.5v-2446.5v-2446.5l147.4,15.3c961,103.4,1854.9,794.4,2345,1814.7c63.2,132.1,118.7,243.1,122.5,247c5.8,7.6,1366.8-681.5,1393.6-706.4c7.6-9.6-97.6-235.4-235.5-505.4c-264.2-514.9-277.6-560.9-224-687.2c34.5-82.3,130.2-162.7,214.4-178c84.2-15.3,201,17.2,264.2,74.6c63.2,57.4,702.5,1305.5,714,1395.5c11.5,82.3-49.8,225.9-114.9,269.9c-23,15.3-446,231.6-938,482.4c-815.5,413.5-895.9,457.5-886.3,495.8c51.7,189.5,107.2,687.2,107.2,964.8v158.9l82.3-11.5c97.6-13.4,1100.7-124.4,1125.6-124.4c9.6,0,17.2-208.7,17.2-503.5c0-484.3,1.9-505.4,44-587.7c45.9-91.9,168.5-172.3,262.3-172.3s216.3,80.4,264.2,172.3c42.1,82.3,42.1,97.6,42.1,746.6c0,649,0,664.3-42.1,746.6c-76.6,149.3-78.5,149.3-989.7,252.7c-447.9,49.8-828.9,91.9-846.1,91.9c-23,0-38.3,32.5-55.5,120.6c-13.4,65.1-53.6,216.3-88.1,333.1c-36.4,118.7-65.1,220.1-65.1,224c0,9.6,1026.1,804,1049,811.7c7.7,1.9,109.1-187.6,224-419.2c116.8-233.5,233.6-457.5,262.3-495.8c132.1-187.6,421.1-162.7,513,44c21.1,44,38.3,103.4,38.3,132.1c0,30.6-145.5,344.6-344.6,740.8c-292.9,587.7-352.2,693-407.7,727.4C9061.6,1950,8948.6,1963.4,8870.1,1927.1z"/></g></g>
</svg>