<?xml version="1.0" encoding="utf-8"?>
<svg xml:space="preserve" viewBox="0 0 100 100" y="0" x="0" xmlns="http://www.w3.org/2000/svg" id="圖層_1" version="1.1" style="height: 100%; width: 100%; background: rgba(0, 0, 0, 0) none repeat scroll 0% 0%; shape-rendering: auto;" width="128px" height="128px"><g style="transform-origin: 50% 50% 0px; transform: scale(0.8);" class="ldl-scale"><g class="ldl-ani"><g class="ldl-layer"><g class="ldl-ani" style="transform-origin: 50px 50px 0px; transform: scale(1); animation: 16.6667s linear -12.5s infinite normal forwards running beat-c48e31ed-bece-4ada-b751-b9c1ff0cb25f;"><circle fill="#333" r="40" cy="50" cx="50" style="fill: rgb(171, 189, 129);"></circle></g></g><g class="ldl-layer"><g class="ldl-ani" style="transform-origin: 50px 50px 0px; transform: scale(1); animation: 16.6667s linear -16.6667s infinite normal forwards running beat-c48e31ed-bece-4ada-b751-b9c1ff0cb25f;"><path fill="#abbd81" d="M74.7 29.1c-.5-.6-1.4-.8-2-.3-6.1 4.3-11.9 9.2-17.2 14.6-3.9 4-7.5 8.2-10.8 12.7-.6.8-1.7.8-2.3.1-1.4-1.5-2.9-3-4.5-4.2-3.3-2.6-6.9-4.6-10.7-5.9-.8-.3-1.6.1-1.9.8l-.1.3c-.3.7 0 1.5.6 1.9 3.2 1.9 6.1 4.2 8.4 6.8 2.6 3 4.6 6.4 6 10.1l1.7 4.5c.5 1.2 2.1 1.3 2.7.1l2.3-4.4c3.5-6.8 7.6-13.3 12.4-19.3 4.5-5.7 9.6-10.9 15.1-15.7.7-.6.8-1.4.3-2.1z" style="fill: rgb(24, 39, 49);"></path></g></g><metadata xmlns:d="https://loading.io/stock/"><d:name>ok</d:name><d:tags>ok,confirm,ready,positive,check,right,correct,affirmative,success</d:tags><d:license>by</d:license><d:slug>1arbvr</d:slug></metadata></g></g><style id="beat-c48e31ed-bece-4ada-b751-b9c1ff0cb25f" data-anikit="">@keyframes beat-c48e31ed-bece-4ada-b751-b9c1ff0cb25f
{
  0% {
    animation-timing-function: cubic-bezier(0.1028,0.2484,0.1372,0.849);
    transform: scale(1);
  }
  34% {
    animation-timing-function: cubic-bezier(0.7116,0.2095,0.8159,0.6876);
    transform: scale(1.2);
  }
  68% {
    animation-timing-function: cubic-bezier(0.1475,0.2888,0.294,0.883);
    transform: scale(1.0268);
  }
  84% {
    animation-timing-function: cubic-bezier(0.8176,0.2193,0.867,0.6889);
    transform: scale(1.0932);
  }
  100% {
    transform: scale(1);
  }
}</style><!-- [ldio] generated by https://loading.io/ --></svg>