<?xml version="1.0" encoding="utf-8"?>
<!-- Svg Vector Icons : http://www.onlinewebfonts.com/icon -->
<!DOCTYPE svg PUBLIC "-//W3C//DTD SVG 1.1//EN" "http://www.w3.org/Graphics/SVG/1.1/DTD/svg11.dtd">
<svg version="1.1" xmlns="http://www.w3.org/2000/svg" xmlns:xlink="http://www.w3.org/1999/xlink" x="0px" y="0px" viewBox="0 0 1000 1000" enable-background="new 0 0 1000 1000" xml:space="preserve">
<metadata> Svg Vector Icons : http://www.onlinewebfonts.com/icon </metadata>
<g><path d="M984.4,425.6l-2.3-14.9L876.8,383c-4.5-1.9-32.4-14-41.1-36.5c-5.2-13.3-3-28.6,6.5-46.8l53.5-89.2l-9.7-12.4c-27.9-35.7-60.6-67.3-97.2-94l-13.6-9.9l-78.1,57.3c-3.6,2-21,11.1-39.7,11.1c-13.3,0-32.6-3.8-46.7-36.6L570,14.8l-14.1-1.6C537.5,11.1,518.7,10,500,10c-22.9,0-45.9,1.6-68.6,4.8L415.7,17l-25.3,110.6c-1,2.7-5.1,13.3-12.8,23.6c-11,14.7-23.6,21.9-38.4,21.9c-9.2,0-19.6-2.8-30.8-8.2l-102.5-57l-12,9.6c-32.1,25.7-60.9,55.4-85.6,88.2l-9.9,13.2l61.6,89.7c2.4,4.7,15.5,31.7,7.2,54.6c-4.8,13.4-16.4,23.5-35.4,30.9L14.3,432.9l-1.6,14.7C10.9,464.9,10,482.6,10,500c0,27.1,2.2,54.3,6.6,80.9l2.5,15l113.4,27.5c4.6,1.8,32.6,13.4,41.8,35.7c5.4,13.2,3.6,28.6-5.6,46.9l-55,95.9l10.3,12.3c26.8,32.1,57.7,60.7,91.7,85l11.4,8.1l91.8-47.3c3.2-1.2,16-5.5,30.7-5.5c26.9,0,43,14.1,50.6,44.3l16.5,84.5l16.3,2.2c22.1,3,44.7,4.6,67.1,4.6c21.4,0,42.9-1.4,64.1-4.2l14.4-1.9l36-111.9c2.6-5.5,20.4-41,51.2-41c10.2,0,21.6,3.7,33.8,11l84.8,57.3l13.1-10c34.6-26.5,65.6-57.5,92.1-92.1l9.8-12.9l-62.1-95.9c-2.3-4.7-14.6-32.1-5.7-54.8c5.2-13.2,17.1-23,36.2-30l117.7-35.4l1.6-15.2c1.9-17.6,2.9-35.5,2.9-53.2C990,475.1,988.1,450,984.4,425.6L984.4,425.6z M942.8,533.2l-89.9,27c-32.5,11.6-54.1,30.8-64.3,57.1c-17.2,44.6,7.4,91.5,8.4,93.4l0.5,0.9l45.6,70.4c-18.2,22.1-38.5,42.5-60.7,60.7l-58.6-39.6c-19.7-11.9-39.2-18-58.1-18c-63.9,0-92.6,67-93.8,69.9l-0.4,0.9l-27.7,86c-29.4,2.9-59.1,2.8-88.5-0.1l-10.3-52.5l-0.2-1.1c-7.1-28.6-20.6-50-40.2-63.6c-15.5-10.7-34-16.1-55.1-16.1c-25.8,0-46.6,8.3-48.9,9.2l-0.9,0.4l-68.6,35.3c-22.2-16.9-42.9-36-61.6-56.8l39.2-68.4l0.5-1c15.6-30.7,18.1-59.5,7.4-85.6c-18.1-44.2-68.2-61.3-70.4-62l-0.9-0.3l-85.7-20.8c-2.5-19.3-3.8-38.9-3.8-58.4c0-10.9,0.4-21.9,1.2-32.8l90.6-29.9c32.2-12.4,53.3-32.2,62.7-58.8c16-45-9.8-91.2-10.9-93.2l-0.5-0.8l-44-64.1c16.8-20.7,35.5-39.9,55.7-57.3l76.9,42.7c17.8,8.8,35.1,13.2,51.6,13.2c29.4,0,55.4-13.9,75.1-40.2c13.6-18.1,19.5-35.9,20.1-37.8l0.3-0.9l18.6-81.6c27.7-2.9,55.7-3.2,83.3-0.9l31.1,84.9l0.4,1.1c9.7,22.8,23.1,39.9,40,50.9c14.4,9.4,31,14.2,49.2,14.2c33.6,0,61.3-16.3,64.3-18.2l0.8-0.5l52.5-38.5c23.7,18.7,45.5,39.8,64.9,63l-37.4,62.4l-0.6,1c-16.2,30.4-19.3,59.2-9.1,85.5c17.3,44.5,67,62.6,69.1,63.4l0.9,0.3l78,20.5c2.1,17.4,3.1,35.1,3.1,52.6C944.1,511.1,943.7,522.2,942.8,533.2L942.8,533.2z"/><path d="M500,266.1c-62.5,0-121.2,24.3-165.4,68.5c-44.2,44.2-68.5,102.9-68.5,165.4c0,129,104.9,233.9,233.9,233.9c129,0,233.9-104.9,233.9-233.9c0-62.5-24.3-121.2-68.5-165.4S562.5,266.1,500,266.1L500,266.1z M500,687.9c-103.6,0-187.9-84.3-187.9-187.9c0-103.6,84.3-187.9,187.9-187.9c103.6,0,187.9,84.3,187.9,187.9C687.9,603.6,603.6,687.9,500,687.9z"/></g>
</svg>