<?xml version="1.0" encoding="utf-8"?>
<!-- Svg Vector Icons : http://www.onlinewebfonts.com/icon -->
<!DOCTYPE svg PUBLIC "-//W3C//DTD SVG 1.1//EN" "http://www.w3.org/Graphics/SVG/1.1/DTD/svg11.dtd">
<svg version="1.1" xmlns="http://www.w3.org/2000/svg" xmlns:xlink="http://www.w3.org/1999/xlink" x="0px" y="0px" viewBox="0 0 1000 1000" enable-background="new 0 0 1000 1000" xml:space="preserve">
<metadata> Svg Vector Icons : http://www.onlinewebfonts.com/icon </metadata>
<g><path d="M278.5,415.9h443.1c6.3,0,12.4-2.5,16.9-6.8c4.4-4.3,7-10.3,7-16.4V90c0-6.1-2.6-12.1-7-16.4c-4.4-4.3-10.6-6.8-16.9-6.8H278.5c-6.3,0-12.5,2.5-16.9,6.8c-4.4,4.3-7,10.3-7,16.4v302.6c0,6.1,2.6,12.1,7,16.4C266,413.4,272.2,415.9,278.5,415.9z M302.4,113.2h395.3l0,256.3H302.4L302.4,113.2L302.4,113.2z"/><path d="M265.1,720.2H33.9c-6.3,0-12.5,2.5-16.9,6.8c-4.4,4.3-7,10.3-7,16.4V910c0,6.1,2.6,12,7,16.4c4.5,4.3,10.6,6.8,16.9,6.8h231.2c6.4,0,12.4-2.4,16.9-6.8c4.5-4.4,7-10.2,7-16.4V743.4c0-6.1-2.5-12-7-16.4C277.6,722.7,271.4,720.2,265.1,720.2z M241.2,886.8H57.8V766.5h183.5V886.8L241.2,886.8z"/><path d="M615.6,720.2H384.4c-6.3,0-12.4,2.5-16.9,6.8c-4.4,4.3-7,10.3-7,16.4v166.6c0,6.1,2.5,12,7,16.4c4.4,4.3,10.6,6.8,16.9,6.8h231.2c6.4,0,12.4-2.4,16.9-6.8c4.5-4.4,7-10.2,7-16.3V743.3c0-6.1-2.5-12-7-16.4C628.1,722.7,621.9,720.2,615.6,720.2z M408.3,886.8V766.5h183.5v120.3H408.3z"/><path d="M983,727c-4.4-4.3-10.6-6.8-16.9-6.8H734.9c-6.3,0-12.4,2.5-16.9,6.8c-4.5,4.3-7,10.3-7,16.4v166.6c0,6.1,2.5,12,7,16.4c4.4,4.3,10.6,6.8,16.9,6.8h231.2c6.4,0,12.4-2.4,16.9-6.8c4.5-4.4,7-10.2,7-16.4V743.3C990,737.3,987.5,731.3,983,727z M942.3,886.8H758.8V766.5h183.5V886.8z"/><path d="M80.2,665.4c13.2,0,23.9-10.4,23.9-23.2l0-44.6l365.3-0.5v49.1c0,12.8,10.7,23.2,23.9,23.2c13.2,0,23.9-10.4,23.9-23.2v-49.1l365.3,0.5v44.6c0,12.8,10.7,23.2,23.9,23.2s23.9-10.4,23.9-23.2v-67.7c0-12.8-10.6-23.2-23.9-23.2l-389.1-0.5v-55.9c0,0,0-0.1,0-0.2v-11c0-12.8-10.7-23.1-23.9-23.1s-23.9,10.4-23.9,23.1v67.1l-389.3,0.5c-13.2,0-23.8,10.4-23.8,23.2v67.7C56.4,655,67.1,665.4,80.2,665.4z"/><path d="M594.8,218.2h-197c-13.2,0-23.9,10.4-23.9,23.2c0,12.8,10.6,23.1,23.9,23.1h197c13.2,0,23.9-10.4,23.9-23.1C618.8,228.6,608.1,218.2,594.8,218.2z"/><path d="M594.8,292.2h-197c-13.2,0-23.9,10.4-23.9,23.2c0,12.8,10.6,23.1,23.9,23.1h197c13.2,0,23.9-10.4,23.9-23.1C618.8,302.5,608.1,292.2,594.8,292.2z"/><path d="M594.8,147.9h-197c-13.2,0-23.9,10.4-23.9,23.2c0,12.8,10.6,23.1,23.9,23.1h197c13.2,0,23.9-10.4,23.9-23.1S608.1,147.9,594.8,147.9z"/></g>
</svg>