<?xml version="1.0" encoding="utf-8"?>
<!-- Svg Vector Icons : http://www.onlinewebfonts.com/icon -->
<!DOCTYPE svg PUBLIC "-//W3C//DTD SVG 1.1//EN" "http://www.w3.org/Graphics/SVG/1.1/DTD/svg11.dtd">
<svg version="1.1" xmlns="http://www.w3.org/2000/svg" xmlns:xlink="http://www.w3.org/1999/xlink" x="0px" y="0px" viewBox="0 0 1000 1000" enable-background="new 0 0 1000 1000" xml:space="preserve">
<metadata> Svg Vector Icons : http://www.onlinewebfonts.com/icon </metadata>
<g><path d="M798.4,464.3v182.8H69.1v-21.3c0-126.7,0.4-253.5-0.4-380.2c-0.1-18.3,4.1-24.1,23.3-24.1c170.4,0.5,340.8,0.6,511.2,0.5c3.4-20.8,9.9-40.6,19-58.9C441,163,259.6,163,78.2,163.2c-44.3,0-68.1,24.7-68.1,68.9c-0.1,156.5-0.1,312.9,0,469.4c0.1,44.7,23.9,68,68.4,68c90.6,0.1,181.2,0,271.9,0h23.1v93.4H349c-40.3,0-80.6-0.3-121,0.1c-24.5,0.3-34.4,10.5-35.2,35c-0.3,7.3,0,14.9,0,23.1h481.7c7.2-48.1-1.2-58.2-46.6-58.4c-38.3,0-76.5,0.5-114.7-0.4c-6-0.1-16.8-5.7-16.9-9.3c-1.5-27.3-0.8-54.6-0.8-83.6h26.3c90,0,179.8,0.1,269.7,0c45.2-0.1,68.1-23.1,68.1-68c0.1-81,0.1-162,0.1-243c-16.1,4-33,6.1-50.4,6.1C805.6,464.6,802,464.5,798.4,464.3z M433.9,740.3c-15.9-0.5-29.3-14.4-29.3-30.5s13.3-30,29.3-30.4c17.1-0.4,31.3,13.3,31.5,30.4C465.4,726.6,451,740.6,433.9,740.3z"/><path d="M989.7,244.9l-4.9-27.9c-1.5-8.6-7.8-15.5-16.2-17.7c-7-1.9-16.8-2.8-29.9-2.8c-1.2,0-2.5,0-3.8,0c-1.5-2.9-3.1-5.7-4.9-8.5c7.8-13.1,12.4-23,14.5-30.8c2.3-8.4-0.5-17.4-7.1-23l-21.6-18.2c-4.1-3.4-9.1-5.2-14.3-5.2c-3.2,0-6.4,0.7-9.4,2.1c-7.2,3.4-16.1,9.7-27.6,19.7c-2.9-1.2-5.9-2.3-8.9-3.3c-2.4-15.1-5.1-25.6-7.8-34.6c-2.8-9.5-11.4-16-21.3-16h-28.2c-9.8,0-18.5,6.5-21.3,16c-2.6,8.8-5.3,19-7.6,33.5c-3.1,1.1-6.2,2.3-9.4,3.7c-11-9.5-19.9-15.8-27.2-19.2c-3-1.4-6.2-2.1-9.4-2.1c-5.1,0-10.2,1.8-14.3,5.2l-21.6,18.3c-6.6,5.6-9.4,14.5-7.1,22.9c2.1,7.7,6.8,17.8,14.5,30.8c-1.7,2.8-3.4,5.6-4.9,8.5c-1.3,0-2.6,0-3.8,0c-13.1,0-22.9,0.9-29.9,2.8c-8.4,2.2-14.7,9.1-16.2,17.7l-4.9,27.9c-1.5,8.6,2.1,17.2,9.2,22.2c4.3,3,12.1,7.6,30.8,14.2c0.6,4.2,1.4,8.3,2.3,12.5c-1.9,1.5-3.8,3.1-5.8,4.7l-14.7,11.9c-8.5,6.9-10.8,19-5.3,28.6l14.1,24.5c4.1,7.1,11.5,11.2,19.2,11.2c2.7,0,5.4-0.5,8-1.5l17.6-6.9c2.3-0.9,4.6-1.8,6.9-2.7c3.8,3.5,7.7,6.9,11.9,10c-0.5,2.4-1,4.9-1.4,7.4l-3.6,18.6c-2.1,10.8,3.9,21.6,14.2,25.3l26.5,9.7c2.5,0.9,5.1,1.3,7.6,1.3c7.9,0,15.5-4.3,19.4-11.6l9.1-16.6c1.2-2.2,2.4-4.4,3.6-6.5c2.6,0.2,5.2,0.2,7.7,0.2c2.6,0,5.1-0.1,7.7-0.2c1.2,2.1,2.4,4.3,3.6,6.5l9.1,16.6c4,7.3,11.5,11.6,19.4,11.6c2.5,0,5.1-0.4,7.6-1.3l26.5-9.7c10.3-3.8,16.3-14.5,14.2-25.3l-3.6-18.6c-0.5-2.5-1-5-1.4-7.4c4.1-3.1,8.1-6.4,11.9-10c2.3,0.9,4.5,1.8,6.9,2.7l17.6,6.9c2.6,1,5.3,1.5,8,1.5c7.7,0,15.1-4.1,19.2-11.2l14.1-24.5c5.5-9.5,3.2-21.7-5.3-28.6l-14.7-11.9c-2-1.6-3.9-3.2-5.8-4.7c1-4.1,1.7-8.3,2.3-12.5c18.7-6.6,26.5-11.2,30.8-14.2C987.6,262.2,991.2,253.5,989.7,244.9z M933.3,263.3c-1.4,0.5-3,0.9-4.5,1.4c-0.3,13-2.7,25.5-6.9,37.1c0.2,0.1,0.3,0.3,0.5,0.4c9.7,7.8,19.9,16.1,31.6,25.6l-14.1,24.5c-14-5.5-26.3-10.2-37.8-14.7c-0.2-0.1-0.3-0.1-0.5-0.2c-8.6,10.3-19,19.1-30.7,25.9c0,0.2,0.1,0.4,0.1,0.6c2.5,12.2,4.9,25.3,7.9,40.1l-26.5,9.7c-7.2-13.2-13.6-24.8-19.6-35.8c-0.1-0.2-0.2-0.4-0.3-0.6c-6.5,1.1-13.2,1.8-20,1.8s-13.5-0.7-20-1.8c-0.1,0.2-0.2,0.4-0.3,0.6c-5.9,11-12.3,22.5-19.6,35.8l-26.5-9.7c2.9-14.8,5.4-27.8,7.9-40.1c0-0.2,0.1-0.4,0.1-0.6c-11.7-6.8-22.1-15.6-30.7-25.9c-0.2,0.1-0.3,0.1-0.5,0.2c-11.5,4.6-23.8,9.3-37.8,14.7L671,327.8c11.7-9.4,21.9-17.8,31.6-25.6c0.2-0.1,0.3-0.3,0.5-0.4c-4.2-11.6-6.6-24.1-6.9-37.1c-1.5-0.5-3.1-0.9-4.5-1.4c-16.1-5.2-28.4-10.2-34.5-14.5l4.9-27.9c5.2-1.4,13.6-2,24.3-2c2.8,0,5.7,0,8.8,0.1c2.9,0.1,5.9,0.2,9,0.4c4.3-11.1,10.2-21.4,17.5-30.5c-1.7-2.6-3.3-5.2-4.8-7.7c-7.8-12.7-13.1-23.2-14.9-29.8l21.6-18.3c6.2,2.9,15.4,9.9,26.5,19.8c2.1,1.9,4.4,3.7,6.6,5.8c10.2-5.6,21.2-10.3,33-12.6c0.4-3.1,0.8-7.2,1.2-10c2.2-14.8,4.7-25,7.6-34.7h28.2c2.9,9.8,5.4,20,7.6,34.7c0.4,2.8,0.8,8.1,1.2,11.2c11.7,2.4,22.8,6.5,33,12.1c2.2-2.1,4.5-4.2,6.6-6.1c11.1-9.9,20.4-17,26.5-19.9l21.6,18.2c-1.8,6.6-7.1,17.1-14.9,29.8c-1.5,2.4-3.1,5-4.8,7.7c7.3,9.2,13.2,19.4,17.5,30.5c3.1-0.2,6.1-0.3,9-0.4c3.1-0.1,6-0.1,8.8-0.1c10.6,0,19,0.6,24.3,2l4.9,27.9C961.7,253.1,949.4,258.1,933.3,263.3z"/><path d="M812.6,190.5c-36.8,0-66.6,30-66.6,67c0,37,29.8,67,66.6,67c36.8,0,66.6-30,66.6-67C879.2,220.4,849.4,190.5,812.6,190.5z M812.6,302.1c-24.5,0-44.4-20-44.4-44.6c0-24.6,19.9-44.6,44.4-44.6c24.5,0,44.4,20,44.4,44.6C857,282,837.1,302.1,812.6,302.1z"/></g>
</svg>