<?xml version="1.0" encoding="utf-8"?>
<svg xml:space="preserve" viewBox="0 0 100 100" y="0" x="0" xmlns="http://www.w3.org/2000/svg" id="Layer_1" version="1.1" style="height: 100%; width: 100%; background: none; shape-rendering: auto;" width="128px" height="128px"><g class="ldl-scale" style="transform-origin: 50% 50%; transform: scale(0.8);"><g class="ldl-ani" style="transform-origin: 50px 50px; transform: scale(1); animation: 20s linear 0s infinite normal forwards running beat-c4197ad4-3ffd-4aa7-b939-512f12b145b8;"><g class="ldl-layer"><g class="ldl-ani"><g><g class="ldl-layer"><g class="ldl-ani" style="transform-origin: 50px 50px;"><path fill="#666766" d="M83.8 31.2H16.2c-3.5 0-6.2-2.8-6.2-6.2s2.8-6.2 6.2-6.2h67.5c3.5 0 6.2 2.8 6.2 6.2s-2.7 6.2-6.1 6.2z" style="fill: rgb(255, 249, 245);"></path></g></g></g></g></g><g class="ldl-layer"><g class="ldl-ani"><g><g class="ldl-layer"><g class="ldl-ani" style="transform-origin: 50px 50px;"><path fill="#666766" d="M83.8 56.2H16.2c-3.5 0-6.2-2.8-6.2-6.2s2.8-6.2 6.2-6.2h67.5c3.5 0 6.2 2.8 6.2 6.2s-2.7 6.2-6.1 6.2z" style="fill: rgb(255, 249, 245);"></path></g></g></g></g></g><g class="ldl-layer"><g class="ldl-ani"><g><g class="ldl-layer"><g class="ldl-ani" style="transform-origin: 50px 50px;"><path fill="#666766" d="M83.8 81.2H16.2c-3.5 0-6.2-2.8-6.2-6.2s2.8-6.2 6.2-6.2h67.5c3.5 0 6.2 2.8 6.2 6.2s-2.7 6.2-6.1 6.2z" style="fill: rgb(255, 249, 245);"></path></g></g></g></g></g><metadata xmlns:d="https://loading.io/stock/"><d:name>menu</d:name><d:tags>hamburger,dropdown,responsive,mobile,info,navbar,navigation,tab,menu,web application</d:tags><d:license>free</d:license><d:slug>hs2nrd</d:slug></metadata></g></g><style id="beat-c4197ad4-3ffd-4aa7-b939-512f12b145b8" data-anikit="">@keyframes beat-c4197ad4-3ffd-4aa7-b939-512f12b145b8
{
  0% {
    animation-timing-function: cubic-bezier(0.1028,0.2484,0.1372,0.849);
    transform: scale(1);
  }
  34% {
    animation-timing-function: cubic-bezier(0.7116,0.2095,0.8159,0.6876);
    transform: scale(1.2);
  }
  68% {
    animation-timing-function: cubic-bezier(0.1475,0.2888,0.294,0.883);
    transform: scale(1.0268);
  }
  84% {
    animation-timing-function: cubic-bezier(0.8176,0.2193,0.867,0.6889);
    transform: scale(1.0932);
  }
  100% {
    transform: scale(1);
  }
}</style><!-- [ldio] generated by https://loading.io/ --></svg>