<?xml version="1.0" encoding="utf-8"?>
<svg viewBox="0 0 100 100" xmlns="http://www.w3.org/2000/svg" style="height: 100%; width: 100%; background: rgba(0, 0, 0, 0) none repeat scroll 0% 0%; shape-rendering: auto;" width="128px" height="128px"><g style="transform-origin: 50% 50% 0px; transform: scale(0.8);" class="ldl-scale"><g class="ldl-ani"><g class="ldl-layer"><g class="ldl-ani"><g><g class="ldl-layer"><g class="ldl-ani" style="transform-origin: 50px 50px 0px; transform: scale(0.91); animation: 7.14286s linear -4.28571s infinite normal forwards running breath-bfecde37-0833-44f5-b897-e48b18e94ad2;"><path stroke-miterlimit="10" stroke-width="3" stroke="#c33736" fill="none" d="M47.859 76.927l-13.699.028a5.54 5.54 0 0 1-5.552-5.529l-.016-8.024a5.54 5.54 0 0 1 5.529-5.552l13.699-.028a5.54 5.54 0 0 1 5.552 5.529l.016 8.024a5.542 5.542 0 0 1-5.529 5.552z" style="stroke: rgb(24, 39, 49);"></path></g></g><g class="ldl-layer"><g class="ldl-ani" style="transform-origin: 50px 50px 0px; transform: scale(0.91); animation: 7.14286s linear -5s infinite normal forwards running breath-bfecde37-0833-44f5-b897-e48b18e94ad2;"><path fill="#e15c64" d="M69.971 69.063l-47.073 1.161a2.063 2.063 0 0 0-.845.204l-8.156 3.933a2.064 2.064 0 0 1-2.839-1.162L7.295 62.716a2.064 2.064 0 0 1 1.452-2.702l8.796-2.152c.285-.07.551-.199.782-.38l37.068-29.037a2.063 2.063 0 0 1 3.215.928l13.254 36.93a2.063 2.063 0 0 1-1.891 2.76z" style="fill: rgb(24, 39, 49);"></path></g></g></g></g></g><g class="ldl-layer"><g class="ldl-ani"><g><g class="ldl-layer"><g class="ldl-ani" style="transform-origin: 50px 50px 0px; transform: scale(0.91); animation: 7.14286s linear -5.71429s infinite normal forwards running breath-bfecde37-0833-44f5-b897-e48b18e94ad2;"><path d="M66.621 38.654l12.872-15.609" stroke-miterlimit="10" stroke-width="3" stroke="#76a4bd" fill="none" style="stroke: rgb(167, 212, 236);"></path></g></g><g class="ldl-layer"><g class="ldl-ani" style="transform-origin: 50px 50px 0px; transform: scale(0.91); animation: 7.14286s linear -6.42857s infinite normal forwards running breath-bfecde37-0833-44f5-b897-e48b18e94ad2;"><path d="M71.986 46.174l18.952-7.082" stroke-miterlimit="10" stroke-width="3" stroke="#76a4bd" fill="none" style="stroke: rgb(167, 212, 236);"></path></g></g><g class="ldl-layer"><g class="ldl-ani" style="transform-origin: 50px 50px 0px; transform: scale(0.91); animation: 7.14286s linear -7.14286s infinite normal forwards running breath-bfecde37-0833-44f5-b897-e48b18e94ad2;"><path d="M72.873 55.369l19.954 3.343" stroke-miterlimit="10" stroke-width="3" stroke="#76a4bd" fill="none" style="stroke: rgb(167, 212, 236);"></path></g></g></g></g></g><metadata xmlns:d="https://loading.io/stock/">
<d:name>marketing</d:name>
<d:tags>marketing,promotion,sales,advertisement,dm,commercial,cm,bullhorn,broadcast</d:tags>
<d:license>by</d:license>
<d:slug>g4pp5q</d:slug>
</metadata></g></g><style id="breath-bfecde37-0833-44f5-b897-e48b18e94ad2" data-anikit="">@keyframes breath-bfecde37-0833-44f5-b897-e48b18e94ad2
{
  0% {
    animation-timing-function: cubic-bezier(0.9647,0.2413,-0.0705,0.7911);
    transform: scale(0.9099999999999999);
  }
  51% {
    animation-timing-function: cubic-bezier(0.9226,0.2631,-0.0308,0.7628);
    transform: scale(1.02994);
  }
  100% {
    transform: scale(0.9099999999999999);
  }
}</style><!-- [ldio] generated by https://loading.io/ --></svg>